<svg
   viewBox="0 0 1.7638862 3.5277724">
   <g
     transform="translate(-111.56597,-119.67987)" fill="currentColor">
     <g
       id="g1"
       transform="matrix(0.26458333,0,0,0.26458333,110.33125,119.19475)"><path
         d="m 10.3333,14.6802 -0.55997,-0.06 c -0.50666,-0.0467 -0.94,-0.3867 -1.10666,-0.8734 -0.35334,-1.3066 -0.35334,-2.6933 0,-3.99997 C 10.2133,9.4335 11.3333,8.08016 11.3333,6.50016 11.3333,5.16683 10,1.8335 10,1.8335 H 6 c 0,0 -1.33333,3.33333 -1.33333,4.66666 0,1.58667 1.11333,2.94667 2.66666,3.26667 0.35334,1.30667 0.35334,2.69337 0,3.99997 -0.16,0.48 -0.58666,0.82 -1.08666,0.8734 l -0.58,0.06 c 0,0 -0.33334,-0.0134 -0.33334,0.4666 h 5.33337 c 0,-0.48 -0.3334,-0.4866 -0.3334,-0.4866 z m -4.03997,-9.51337 0.66667,-2 h 2.08 l 0.66667,2 z"
         fill="currentColor"/>
         </g>
         </g>
         </svg>
